<svg xmlns="http://www.w3.org/2000/svg" viewBox="0 0 256 256" xml:space="preserve"><path fill="#72C2E9" d="M32 238.086v-220c0-5.523 4.477-10 10-10h172c5.523 0 10 4.477 10 10v220c0 5.523-4.477 10-10 10H42c-5.523 0-10-4.477-10-10z"/><path fill="#C5E5FE" d="M214 241.586H56.571a2.5 2.5 0 1 1 0-5H212.5v-218.5a2.5 2.5 0 1 1 5 0v220c0 1.93-1.57 3.5-3.5 3.5zm-167.429 0H42a2.5 2.5 0 1 1 0-5h4.571a2.5 2.5 0 1 1 0 5z"/><path fill="#F0C020" d="M56 24.086h144v40H56z"/><path fill="#FC5D3D" d="M72 104.086h-8a8 8 0 0 1 0-16h8a8 8 0 1 1 0 16zM112 104.086h-8a8 8 0 0 1 0-16h8a8 8 0 1 1 0 16zM152 104.086h-8a8 8 0 0 1 0-16h8a8 8 0 1 1 0 16zM192 104.086h-8a8 8 0 0 1 0-16h8a8 8 0 1 1 0 16z"/><circle fill="#EFEFEF" cx="68" cy="132.086" r="12"/><circle fill="#EFEFEF" cx="108" cy="132.086" r="12"/><circle fill="#EFEFEF" cx="148" cy="132.086" r="12"/><circle fill="#EFEFEF" cx="188" cy="132.086" r="12"/><circle fill="#EFEFEF" cx="68" cy="172.086" r="12"/><circle fill="#EFEFEF" cx="108" cy="172.086" r="12"/><circle fill="#EFEFEF" cx="148" cy="172.086" r="12"/><circle fill="#EFEFEF" cx="68" cy="212.086" r="12"/><circle fill="#EFEFEF" cx="108" cy="212.086" r="12"/><circle fill="#EFEFEF" cx="148" cy="212.086" r="12"/><path fill="#FC5D3D" d="M188 224.086c6.627 0 12-5.373 12-12v-40c0-6.627-5.373-12-12-12s-12 5.373-12 12v40c0 6.628 5.373 12 12 12z"/><circle cx="82" cy="24.086" r="2.5"/><path d="M202.5 24.086c0-1.374-1.101-2.5-2.5-2.5H92a2.5 2.5 0 0 0 0 5h105.5v35h-139v-35H72a2.5 2.5 0 0 0 0-5H56a2.5 2.5 0 0 0-2.5 2.5v40c0 1.366 1.111 2.5 2.5 2.5h144c1.382 0 2.5-1.108 2.5-2.5v-40zM72 85.586h-8c-5.79 0-10.5 4.71-10.5 10.5s4.71 10.5 10.5 10.5h8c5.79 0 10.5-4.71 10.5-10.5s-4.71-10.5-10.5-10.5zm0 16h-8c-3.03 0-5.49-2.47-5.5-5.5a5.523 5.523 0 0 1 5.5-5.5h8c3.03.01 5.5 2.47 5.5 5.5s-2.47 5.5-5.5 5.5zM112 85.586h-8c-5.79 0-10.5 4.71-10.5 10.5s4.71 10.5 10.5 10.5h8c5.79 0 10.5-4.71 10.5-10.5s-4.71-10.5-10.5-10.5zm0 16h-8c-3.03-.01-5.5-2.47-5.5-5.5s2.47-5.5 5.5-5.5h8c3.03 0 5.5 2.47 5.5 5.5s-2.47 5.49-5.5 5.5zM152 85.586h-8c-5.79 0-10.5 4.71-10.5 10.5s4.71 10.5 10.5 10.5h8c5.79 0 10.5-4.71 10.5-10.5s-4.71-10.5-10.5-10.5zm0 16h-8a5.51 5.51 0 0 1-5.5-5.5c0-3.03 2.47-5.49 5.5-5.5h8c3.03.01 5.49 2.47 5.5 5.5-.01 3.03-2.47 5.5-5.5 5.5zM192 85.586h-8c-5.79 0-10.5 4.71-10.5 10.5s4.71 10.5 10.5 10.5h8c5.79 0 10.5-4.71 10.5-10.5s-4.71-10.5-10.5-10.5zm0 16h-8c-3.03-.01-5.5-2.47-5.5-5.5s2.47-5.5 5.5-5.5h8c3.03 0 5.49 2.47 5.5 5.5a5.523 5.523 0 0 1-5.5 5.5z"/><path d="M214 5.586H42c-6.89 0-12.5 5.61-12.5 12.5v220c0 6.89 5.61 12.5 12.5 12.5h172c6.89 0 12.5-5.61 12.5-12.5v-83.43a2.5 2.5 0 0 0-5 0v83.43c-.01 4.13-3.37 7.49-7.5 7.5H42c-4.13-.01-7.49-3.37-7.5-7.5v-220c.01-4.13 3.37-7.49 7.5-7.5h172c4.13.01 7.49 3.37 7.5 7.5v116.57a2.5 2.5 0 0 0 5 0V18.086c0-6.89-5.61-12.5-12.5-12.5z"/><circle cx="224" cy="144.656" r="2.5"/><path d="M68 117.586c-7.99 0-14.5 6.51-14.5 14.5 0 8 6.51 14.5 14.5 14.5 8 0 14.5-6.5 14.5-14.5 0-7.99-6.5-14.5-14.5-14.5zm0 24c-5.23-.01-9.49-4.27-9.5-9.5.01-5.23 4.27-9.49 9.5-9.5 5.23.01 9.49 4.27 9.5 9.5-.01 5.23-4.27 9.49-9.5 9.5zM108 117.586c-7.99 0-14.5 6.51-14.5 14.5s6.51 14.5 14.5 14.5 14.5-6.51 14.5-14.5-6.51-14.5-14.5-14.5zm0 24c-5.23-.01-9.49-4.27-9.5-9.5.01-5.23 4.27-9.49 9.5-9.5 5.23.01 9.49 4.27 9.5 9.5-.01 5.23-4.27 9.49-9.5 9.5zM148 117.586c-8 0-14.5 6.51-14.5 14.5s6.5 14.5 14.5 14.5c7.99 0 14.5-6.51 14.5-14.5s-6.51-14.5-14.5-14.5zm0 24c-5.23-.01-9.49-4.27-9.5-9.5.01-5.23 4.27-9.49 9.5-9.5 5.229.01 9.49 4.27 9.5 9.5-.01 5.23-4.271 9.49-9.5 9.5zM188 117.586c-7.99 0-14.5 6.51-14.5 14.5s6.51 14.5 14.5 14.5 14.5-6.51 14.5-14.5-6.51-14.5-14.5-14.5zm0 24c-5.23-.01-9.49-4.27-9.5-9.5.01-5.23 4.27-9.49 9.5-9.5 5.229.01 9.49 4.27 9.5 9.5-.01 5.23-4.271 9.49-9.5 9.5zM68 157.586c-7.99 0-14.5 6.51-14.5 14.5s6.51 14.5 14.5 14.5c8 0 14.5-6.51 14.5-14.5s-6.5-14.5-14.5-14.5zm0 24c-5.23-.01-9.49-4.27-9.5-9.5.01-5.23 4.27-9.49 9.5-9.5 5.23.01 9.49 4.27 9.5 9.5-.01 5.23-4.27 9.49-9.5 9.5zM108 157.586c-7.99 0-14.5 6.51-14.5 14.5s6.51 14.5 14.5 14.5 14.5-6.51 14.5-14.5-6.51-14.5-14.5-14.5zm0 24c-5.23-.01-9.49-4.27-9.5-9.5.01-5.23 4.27-9.49 9.5-9.5 5.23.01 9.49 4.27 9.5 9.5-.01 5.23-4.27 9.49-9.5 9.5zM148 157.586c-8 0-14.5 6.51-14.5 14.5s6.5 14.5 14.5 14.5c7.99 0 14.5-6.51 14.5-14.5s-6.51-14.5-14.5-14.5zm0 24c-5.23-.01-9.49-4.27-9.5-9.5.01-5.23 4.27-9.49 9.5-9.5 5.229.01 9.49 4.27 9.5 9.5-.01 5.23-4.271 9.49-9.5 9.5zM68 197.586c-7.99 0-14.5 6.51-14.5 14.5s6.51 14.5 14.5 14.5c8 0 14.5-6.51 14.5-14.5s-6.5-14.5-14.5-14.5zm0 24c-5.23-.01-9.49-4.27-9.5-9.5.01-5.23 4.27-9.49 9.5-9.5 5.23.01 9.49 4.27 9.5 9.5-.01 5.23-4.27 9.49-9.5 9.5zM108 197.586c-7.99 0-14.5 6.51-14.5 14.5s6.51 14.5 14.5 14.5 14.5-6.51 14.5-14.5-6.51-14.5-14.5-14.5zm0 24c-5.23-.01-9.49-4.27-9.5-9.5.01-5.23 4.27-9.49 9.5-9.5 5.23.01 9.49 4.27 9.5 9.5-.01 5.23-4.27 9.49-9.5 9.5zM148 197.586c-8 0-14.5 6.51-14.5 14.5s6.5 14.5 14.5 14.5c7.99 0 14.5-6.51 14.5-14.5s-6.51-14.5-14.5-14.5zm0 24c-5.23-.01-9.49-4.27-9.5-9.5.01-5.23 4.27-9.49 9.5-9.5 5.229.01 9.49 4.27 9.5 9.5-.01 5.23-4.271 9.49-9.5 9.5z"/><circle cx="176" cy="185.516" r="2.5"/><path d="M173.5 212.086c0 7.99 6.51 14.5 14.5 14.5s14.5-6.51 14.5-14.5v-40c0-7.99-6.51-14.5-14.5-14.5s-14.5 6.51-14.5 14.5v3.43a2.5 2.5 0 0 0 5 0v-3.43c.01-5.23 4.27-9.49 9.5-9.5 5.229.01 9.49 4.27 9.5 9.5v40c-.01 5.23-4.271 9.49-9.5 9.5-5.23-.01-9.49-4.27-9.5-9.5v-16.57a2.5 2.5 0 0 0-5 0v16.57zM79 41.586h-7a2.5 2.5 0 0 0 0 5h7v7a2.5 2.5 0 0 0 5 0v-7h7a2.5 2.5 0 0 0 0-5h-7v-7a2.5 2.5 0 0 0-5 0v7zM122 46.586a2.5 2.5 0 0 0 0-5h-19a2.5 2.5 0 0 0 0 5h19zM135.01 52.566a2.495 2.495 0 0 0 3.54.01l4.952-4.952 4.948 4.952a2.499 2.499 0 0 0 3.54-.01 2.497 2.497 0 0 0 0-3.53l-4.952-4.948 4.952-4.952c.97-.97.97-2.56 0-3.53-.95-.95-2.601-.95-3.54 0l-4.948 4.948-4.952-4.948c-.94-.95-2.59-.95-3.54 0-.966.966-.982 2.558.01 3.53l4.948 4.952-4.948 4.948c-.972.952-1 2.539-.01 3.53zM162.5 44.086a2.5 2.5 0 0 0 2.5 2.5h19a2.5 2.5 0 0 0 0-5h-19a2.5 2.5 0 0 0-2.5 2.5zM177 37.756v-.39a2.5 2.5 0 0 0-5 0v.39a2.5 2.5 0 0 0 5 0zM172 50.606v.39a2.5 2.5 0 0 0 5 0v-.39a2.5 2.5 0 0 0-5 0z"/></svg>